<svg width="110" height="110" viewBox="0 0 110 110" fill="none" xmlns="http://www.w3.org/2000/svg">
<rect width="110" height="110" rx="50" fill="#FFF2F0"/>
<path d="M77.5 81.25H55C53.9646 81.25 53.125 80.4104 53.125 79.375V30.625C53.125 29.5896 53.9646 28.75 55 28.75H77.5C78.5354 28.75 79.375 29.5896 79.375 30.625V79.375C79.375 80.4104 78.5354 81.25 77.5 81.25ZM56.875 77.5H75.625V32.5H56.875V77.5Z" fill="#FF684C"/>
<path d="M70 81.25H62.5C61.4646 81.25 60.625 80.4104 60.625 79.375V68.125C60.625 67.0896 61.4646 66.25 62.5 66.25H70C71.0354 66.25 71.875 67.0896 71.875 68.125V79.375C71.875 80.4104 71.0354 81.25 70 81.25ZM64.375 77.5H68.125V70H64.375V77.5Z" fill="#FF684C"/>
<path d="M55 81.25H32.5C31.4646 81.25 30.625 80.4104 30.625 79.375V49.375C30.625 48.3396 31.4646 47.5 32.5 47.5H55C56.0354 47.5 56.875 48.3396 56.875 49.375V79.375C56.875 80.4104 56.0354 81.25 55 81.25ZM34.375 77.5H53.125V51.25H34.375V77.5Z" fill="#FF684C"/>
<path d="M70 40H68.125V38.125C68.125 37.0896 67.2854 36.25 66.25 36.25C65.2146 36.25 64.375 37.0896 64.375 38.125V40H62.5C61.4646 40 60.625 40.8396 60.625 41.875C60.625 42.9104 61.4646 43.75 62.5 43.75H64.375V45.625C64.375 46.6604 65.2146 47.5 66.25 47.5C67.2854 47.5 68.125 46.6604 68.125 45.625V43.75H70C71.0354 43.75 71.875 42.9104 71.875 41.875C71.875 40.8396 71.0354 40 70 40Z" fill="#FF684C"/>
<path d="M40 62.5C38.9646 62.5 38.125 61.6604 38.125 60.625V56.875C38.125 55.8396 38.9646 55 40 55C41.0354 55 41.875 55.8396 41.875 56.875V60.625C41.875 61.6604 41.0354 62.5 40 62.5Z" fill="#FF684C"/>
<path d="M40 73.75C38.9646 73.75 38.125 72.9104 38.125 71.875V68.125C38.125 67.0896 38.9646 66.25 40 66.25C41.0354 66.25 41.875 67.0896 41.875 68.125V71.875C41.875 72.9104 41.0354 73.75 40 73.75Z" fill="#FF684C"/>
<path d="M47.5 62.5C46.4646 62.5 45.625 61.6604 45.625 60.625V56.875C45.625 55.8396 46.4646 55 47.5 55C48.5354 55 49.375 55.8396 49.375 56.875V60.625C49.375 61.6604 48.5354 62.5 47.5 62.5Z" fill="#FF684C"/>
<path d="M47.5 73.75C46.4646 73.75 45.625 72.9104 45.625 71.875V68.125C45.625 67.0896 46.4646 66.25 47.5 66.25C48.5354 66.25 49.375 67.0896 49.375 68.125V71.875C49.375 72.9104 48.5354 73.75 47.5 73.75Z" fill="#FF684C"/>
<path d="M70 62.5H62.5C61.4646 62.5 60.625 61.6604 60.625 60.625C60.625 59.5896 61.4646 58.75 62.5 58.75H70C71.0354 58.75 71.875 59.5896 71.875 60.625C71.875 61.6604 71.0354 62.5 70 62.5Z" fill="#FF684C"/>
</svg>
