<svg width="110" height="110" viewBox="0 0 110 110" fill="none" xmlns="http://www.w3.org/2000/svg">
<rect width="110" height="110" rx="50" fill="#FFF7E6"/>
<path d="M58.75 62.5H66.25V79.375H70V60.625C70 59.5887 69.1613 58.75 68.125 58.75H56.875C55.8387 58.75 55 59.5887 55 60.625V79.375H58.75V62.5Z" fill="#FFB200"/>
<path d="M75.625 43.75H66.25V47.5H73.75V77.5H36.25V47.5H43.75V43.75H34.375C33.3387 43.75 32.5 44.5887 32.5 45.625V79.375C32.5 80.4113 33.3387 81.25 34.375 81.25H75.625C76.6613 81.25 77.5 80.4113 77.5 79.375V45.625C77.5 44.5887 76.6613 43.75 75.625 43.75Z" fill="#FFB200"/>
<path d="M43.75 43.75H32.5V40H43.75V36.25H30.625C29.5887 36.25 28.75 37.0887 28.75 38.125V45.625C28.75 46.6613 29.5887 47.5 30.625 47.5H43.75V43.75Z" fill="#FFB200"/>
<path d="M79.375 36.25H66.25V40H77.5V43.75H66.25V47.5H79.375C80.4113 47.5 81.25 46.6613 81.25 45.625V38.125C81.25 37.0887 80.4113 36.25 79.375 36.25Z" fill="#FFB200"/>
<path d="M66.25 55H43.75C42.7137 55 41.875 54.1613 41.875 53.125V30.625C41.875 29.5887 42.7137 28.75 43.75 28.75H66.25C67.2863 28.75 68.125 29.5887 68.125 30.625V53.125C68.125 54.1613 67.2863 55 66.25 55ZM45.625 51.25H64.375V32.5H45.625V51.25Z" fill="#FFB200"/>
<path d="M58.75 40H56.875V38.125C56.875 37.0887 56.0363 36.25 55 36.25C53.9637 36.25 53.125 37.0887 53.125 38.125V40H51.25C50.2137 40 49.375 40.8387 49.375 41.875C49.375 42.9113 50.2137 43.75 51.25 43.75H53.125V45.625C53.125 46.6613 53.9637 47.5 55 47.5C56.0363 47.5 56.875 46.6613 56.875 45.625V43.75H58.75C59.7863 43.75 60.625 42.9113 60.625 41.875C60.625 40.8387 59.7863 40 58.75 40Z" fill="#FFB200"/>
<path d="M49.375 70H41.875C40.8387 70 40 69.1613 40 68.125V64.375C40 61.2732 42.5232 58.75 45.625 58.75C48.7268 58.75 51.25 61.2732 51.25 64.375V68.125C51.25 69.1613 50.4113 70 49.375 70ZM43.75 66.25H47.5V64.375C47.5 63.3404 46.6596 62.5 45.625 62.5C44.5904 62.5 43.75 63.3404 43.75 64.375V66.25Z" fill="#FFB200"/>
</svg>
