<svg width="100" height="100" viewBox="0 0 100 100" fill="none" xmlns="http://www.w3.org/2000/svg">
<rect width="100" height="100" rx="50" fill="#EBFAF1"/>
<g clip-path="url(#clip0_32_1188)">
<path d="M34.8671 61.1389C35.2062 60.8055 35.5729 60.5463 35.9487 60.3519C36.0953 60.0185 36.3428 59.7408 36.6453 59.5648C36.6636 58.2315 36.8653 57.0833 37.2411 56.1296C32.9423 58.3333 30 62.8333 30 68.0278C30 74.6759 34.8029 75 41.0907 75C41.7782 75 42.484 75 43.1989 75H56.7919C57.5069 75 58.2126 75 58.9001 75C65.1879 75 70 74.6759 70 68.0278C70 62.7778 66.9936 58.2315 62.6215 56.0555C63.0431 57.0463 63.2905 58.25 63.3455 59.6481C64.7755 59.9815 65.8479 61.2685 65.8479 62.8148C65.8479 64.6111 64.3996 66.0648 62.6306 66.0648C60.8524 66.0648 59.4134 64.6111 59.4134 62.8148C59.4134 61.287 60.4583 60.0093 61.8606 59.6574C61.7965 58.2685 61.4757 56.1574 60.1284 55.1111C59.4409 54.9259 58.7351 54.7963 58.011 54.7315C57.956 57.1666 50 63.1666 50 63.1666C50 63.1666 42.044 57.1666 41.989 54.7315C41.1824 54.8055 40.4033 54.9536 39.6425 55.1666C38.6618 55.9536 38.1576 57.4166 38.1301 59.537C38.4143 59.7036 38.6526 59.9629 38.7901 60.287C39.8442 60.787 40.7791 61.8519 41.494 63.3611C41.6132 63.6204 41.6315 63.9074 41.5399 64.1666C41.9707 65.2778 42.209 66.5 42.209 67.5185C42.209 68.9536 42.209 70.3055 40.66 70.6574C40.495 70.7963 40.2841 70.8796 40.0642 70.8796H39.0468C38.5243 70.8796 38.1027 70.4536 38.1027 69.9259V69.8611C38.1393 69.3704 38.5518 68.9815 39.0376 68.9815H40.0733C40.1833 68.9815 40.2841 69 40.385 69.037C40.4491 69.0185 40.4675 69 40.4675 69C40.5866 68.7963 40.5866 67.9351 40.5866 67.5278C40.5866 66.6944 40.385 65.6944 40.0183 64.7593C39.835 64.6481 39.6792 64.4908 39.5875 64.2963C38.9643 62.9721 38.1118 62.1111 37.4152 62.1111C36.7094 62.1111 35.8112 63.037 35.1879 64.4166C35.0871 64.6389 34.9038 64.824 34.6838 64.9351C34.3538 65.824 34.1796 66.75 34.1796 67.5278C34.1796 67.8704 34.1796 68.787 34.308 69.0093C34.308 69.0093 34.3355 69.0278 34.418 69.0463C34.5279 69.0093 34.6379 68.9815 34.7571 68.9815H35.7929C36.2695 68.9815 36.6728 69.3425 36.7278 69.824L36.7369 69.8333V69.8981C36.7369 70.4629 36.3153 70.8889 35.802 70.8889H34.7571C34.5554 70.8889 34.3538 70.8148 34.1888 70.6944C33.593 70.5833 33.1806 70.3148 32.9148 69.8889C32.594 69.3704 32.539 68.6851 32.539 67.537C32.539 66.5278 32.7681 65.3611 33.1897 64.2408C33.1256 64 33.1439 63.75 33.2539 63.5278C33.6939 62.5648 34.253 61.7408 34.8671 61.1389ZM56.4345 69H63.3639C63.9139 69 64.3537 69.4444 64.3537 70C64.3537 70.5555 63.9139 71 63.3639 71H56.4345C55.8845 71 55.4445 70.5555 55.4445 70C55.4445 69.4444 55.8845 69 56.4345 69Z" fill="#4CD080"/>
<path d="M59.8166 39.6482C59.3584 39.6482 58.68 39.4909 57.9743 38.7316C57.4426 38.315 53.9413 35.6668 50 35.6668C46.0861 35.6668 42.548 38.3242 42.0256 38.7316C41.3198 39.4816 40.6416 39.639 40.1833 39.639C40.1191 39.639 40.0641 39.639 40.0091 39.6297C39.725 39.602 39.4225 39.5001 39.1475 39.3242C39.0559 39.9075 39.0009 40.5001 39.0009 41.1112C39.0009 47.2501 43.9321 56.4909 50.0091 56.4909C56.0861 56.4909 61.0174 47.2501 61.0174 41.1112C61.0174 40.5001 60.9624 39.9075 60.8708 39.3242C60.5958 39.5094 60.2841 39.6112 60 39.639C59.9358 39.6482 59.8808 39.6482 59.8166 39.6482Z" fill="#4CD080"/>
<path d="M62.6305 64.3241C63.4506 64.3241 64.1154 63.6526 64.1154 62.8241C64.1154 61.9957 63.4506 61.3241 62.6305 61.3241C61.8104 61.3241 61.1456 61.9957 61.1456 62.8241C61.1456 63.6526 61.8104 64.3241 62.6305 64.3241Z" fill="#4CD080"/>
<path d="M58.4141 26.6759C58.4141 26.6759 54.3904 25.213 50.7606 25.0278C50.504 25.0185 50.2565 25 49.9999 25C49.7433 25 49.4958 25.0185 49.2391 25.0185C45.6094 25.213 41.5856 26.6667 41.5856 26.6667C40.4948 27.0648 39.6057 28.3519 39.6057 29.5278V37.0741C39.6057 37.75 39.8165 38.1111 40.1373 38.1389C40.1557 38.1389 40.1648 38.1389 40.1832 38.1389C40.4123 38.1389 40.6965 37.9815 41.0081 37.6296C41.0081 37.6296 45.1511 34.1667 49.9999 34.1667C54.8486 34.1667 58.9916 37.6296 58.9916 37.6296C59.3032 37.9815 59.5874 38.1389 59.8165 38.1389C59.8349 38.1389 59.844 38.1389 59.8624 38.1389C60.1831 38.1111 60.394 37.75 60.394 37.0741V29.537C60.394 28.3611 59.5049 27.0648 58.4141 26.6759ZM52.603 30.6389H51.0356V32.2407C51.0356 32.4074 50.9165 32.537 50.779 32.537H49.2299C49.0833 32.537 48.9733 32.4074 48.9733 32.2407V30.6389H47.4059C47.2501 30.6389 47.1218 30.5185 47.1218 30.3704V28.787C47.1218 28.6389 47.2501 28.5185 47.4059 28.5185H48.9733V26.9259C48.9733 26.7593 49.0924 26.6296 49.2299 26.6296H50.779C50.9256 26.6296 51.0356 26.7593 51.0356 26.9259V28.5278H52.603C52.7587 28.5278 52.8871 28.6481 52.8871 28.7963V30.3704C52.8871 30.5185 52.7587 30.6389 52.603 30.6389Z" fill="#4CD080"/>
</g>
<defs>
<clipPath id="clip0_32_1188">
<rect width="50" height="50" fill="white" transform="translate(25 25)"/>
</clipPath>
</defs>
</svg>
