<svg width="36" height="36" viewBox="0 0 36 36" fill="none" xmlns="http://www.w3.org/2000/svg">
<rect x="0.5" y="0.5" width="34.2" height="34.2" rx="17.1" fill="white" fill-opacity="0.99"/>
<rect x="0.5" y="0.5" width="34.2" height="34.2" rx="17.1" stroke="white"/>
<path d="M24.59 17.59C24.59 13.3087 21.1213 9.83997 16.84 9.83997C12.5588 9.83997 9.09003 13.3087 9.09003 17.59C9.09003 20.9025 11.1213 23.6837 13.9963 24.8087C13.9338 24.215 13.8713 23.2775 14.0275 22.59C14.1838 21.9962 14.9338 18.7462 14.9338 18.7462C14.9338 18.7462 14.715 18.2775 14.715 17.59C14.715 16.5275 15.34 15.715 16.1213 15.715C16.7775 15.715 17.09 16.215 17.09 16.8087C17.09 17.465 16.6525 18.465 16.4338 19.4025C16.2775 20.1525 16.84 20.7775 17.59 20.7775C18.965 20.7775 20.0275 19.34 20.0275 17.2462C20.0275 15.3712 18.6838 14.09 16.8088 14.09C14.59 14.09 13.3088 15.7462 13.3088 17.4337C13.3088 18.1212 13.5588 18.84 13.8713 19.215C13.9338 19.2775 13.9338 19.3712 13.9338 19.4337C13.8713 19.6837 13.715 20.215 13.715 20.3087C13.6838 20.465 13.59 20.4962 13.4338 20.4337C12.465 19.965 11.8713 18.5587 11.8713 17.4025C11.8713 14.965 13.6525 12.715 16.9963 12.715C19.6838 12.715 21.7775 14.6525 21.7775 17.215C21.7775 19.8712 20.09 22.0275 17.7463 22.0275C16.965 22.0275 16.215 21.6212 15.965 21.1212C15.965 21.1212 15.59 22.6212 15.4963 22.965C15.3088 23.6525 14.84 24.4962 14.5275 24.9962C15.2463 25.2462 16.0275 25.34 16.84 25.34C21.1213 25.34 24.59 21.8712 24.59 17.59Z" fill="#2AA7FF"/>
</svg>
