<svg width="100" height="100" viewBox="0 0 100 100" fill="none" xmlns="http://www.w3.org/2000/svg">
<rect width="100" height="100" rx="50" fill="#EBF7FF"/>
<g clip-path="url(#clip0_32_1141)">
<path d="M64.371 27.3594C63.1291 26.1755 61.5351 25.6097 59.9309 25.6097C58.13 25.6097 56.2981 26.3326 54.9422 27.7051L54.3627 28.2918L53.7727 27.7051C52.417 26.3326 50.585 25.6097 48.7842 25.6097C47.1799 25.6097 45.586 26.1755 44.3441 27.3594C41.6117 29.9681 41.5599 34.3265 44.1992 36.9981L54.3627 47.2864L64.5262 36.9981C67.155 34.3265 67.1033 29.9681 64.371 27.3594Z" fill="#2AA7FF"/>
<path d="M74.3479 52.5249C72.7851 51.4562 70.9429 51.7601 69.3179 52.7136C67.6827 53.6565 58.3265 61.7551 58.3265 61.7551H49.1151C48.6907 61.7551 48.225 61.2627 48.225 60.8331C48.225 60.3303 48.6598 59.9321 49.1151 59.9321H54.7454C56.7222 59.9321 58.9267 58.6329 58.9267 56.3176C58.9267 53.8555 56.7222 52.7031 54.7454 52.7031C51.3196 52.7031 50.6572 52.7136 50.6572 52.7136C49.2911 52.7136 47.8938 52.6296 46.8278 52.0534C45.3995 51.3096 43.7539 50.8905 41.9944 50.8905C39.0448 50.8905 36.4055 52.0849 34.5943 53.9603L25 63.5466L35.7121 74.3903L39.2828 70.7757H57.3535C59.1544 70.7757 60.8932 70.1051 62.2283 68.9004L74.4618 55.0079C75.2173 54.327 75.1656 53.0906 74.3479 52.5249Z" fill="#2AA7FF"/>
</g>
<defs>
<clipPath id="clip0_32_1141">
<rect width="50" height="50" fill="white" transform="translate(25 25)"/>
</clipPath>
</defs>
</svg>
