<svg width="36" height="36" viewBox="0 0 36 36" fill="none" xmlns="http://www.w3.org/2000/svg">
<rect x="0.5" y="0.5" width="34.2" height="34.2" rx="17.1" fill="white" fill-opacity="0.99"/>
<rect x="0.5" y="0.5" width="34.2" height="34.2" rx="17.1" stroke="white"/>
<path d="M23.9337 14.34C24.5587 13.8712 25.1212 13.3087 25.5587 12.6525C24.9962 12.9025 24.34 13.09 23.6837 13.1525C24.3712 12.7462 24.8712 12.1212 25.1212 11.34C24.4962 11.715 23.7775 11.9962 23.0587 12.1525C22.4337 11.4962 21.59 11.1212 20.6525 11.1212C18.84 11.1212 17.3712 12.59 17.3712 14.4025C17.3712 14.6525 17.4025 14.9025 17.465 15.1525C14.7462 14.9962 12.3087 13.6837 10.6837 11.715C10.4025 12.1837 10.2462 12.7462 10.2462 13.3712C10.2462 14.4962 10.8087 15.4962 11.715 16.09C11.1837 16.0587 10.6525 15.9337 10.215 15.6837V15.715C10.215 17.3087 11.34 18.6212 12.84 18.9337C12.59 18.9962 12.2775 19.0587 11.9962 19.0587C11.7775 19.0587 11.59 19.0275 11.3712 18.9962C11.7775 20.3087 12.9962 21.2462 14.4337 21.2775C13.3087 22.1525 11.9025 22.6837 10.3712 22.6837C10.09 22.6837 9.84 22.6525 9.59 22.6212C11.0275 23.5587 12.7462 24.09 14.6212 24.09C20.6525 24.09 23.9337 19.1212 23.9337 14.7775C23.9337 14.6212 23.9337 14.4962 23.9337 14.34Z" fill="#2AA7FF"/>
</svg>
