<svg width="36" height="36" viewBox="0 0 36 36" fill="none" xmlns="http://www.w3.org/2000/svg">
<rect x="0.5" y="0.5" width="34.2" height="34.2" rx="17.1" fill="white" fill-opacity="0.99"/>
<rect x="0.5" y="0.5" width="34.2" height="34.2" rx="17.1" stroke="white"/>
<path d="M25.7463 13.4962C25.5588 12.7462 24.965 12.1525 24.2463 11.965C22.9025 11.59 17.59 11.59 17.59 11.59C17.59 11.59 12.2463 11.59 10.9025 11.965C10.1838 12.1525 9.59003 12.7462 9.40253 13.4962C9.02753 14.8087 9.02753 17.6212 9.02753 17.6212C9.02753 17.6212 9.02753 20.4025 9.40253 21.7462C9.59003 22.4962 10.1838 23.0587 10.9025 23.2462C12.2463 23.59 17.59 23.59 17.59 23.59C17.59 23.59 22.9025 23.59 24.2463 23.2462C24.965 23.0587 25.5588 22.4962 25.7463 21.7462C26.1213 20.4025 26.1213 17.6212 26.1213 17.6212C26.1213 17.6212 26.1213 14.8087 25.7463 13.4962ZM15.84 20.1525V15.09L20.2775 17.6212L15.84 20.1525Z" fill="#2AA7FF"/>
</svg>
